<svg width="53" height="53" viewBox="0 0 126 118" fill="none" xmlns="http://www.w3.org/2000/svg">
<g clip-path="url(#clip0_1_308)">
<path d="M73.8572 73.6361C78.7211 72.475 82.9461 69.9215 86.0758 66.2514C89.9131 61.7515 91.6143 56.1323 90.866 50.4289C90.1177 44.7266 87.0103 39.6497 82.12 36.1424C77.382 32.7423 71.4754 31.2308 65.4882 31.8863C59.5013 32.5417 54.1323 35.2877 50.3702 39.6179C47.1451 43.3303 45.3862 47.808 45.2834 52.5673C45.1165 60.2934 42.2563 67.7949 37.2293 73.6899L31.7287 80.1403C29.2888 83.0014 29.8046 87.1768 32.8783 89.4479L38.0635 93.279C41.1372 95.5502 45.623 95.07 48.0628 92.2089L53.5629 85.7591C58.6456 79.799 65.6481 75.5955 73.8572 73.6361V73.6361ZM48.216 52.6223C48.3055 48.4746 49.8391 44.5715 52.6508 41.3349C59.406 33.5594 71.8223 32.2001 80.3289 38.3048C84.594 41.3701 87.302 45.7891 87.9541 50.7601C88.6067 55.7323 87.1235 60.6311 83.7783 64.554C81.0499 67.7535 77.3673 69.9796 73.1284 70.9914C64.4788 73.0562 57.0426 77.4266 51.5884 83.6446L39.8661 74.9833C45.0791 68.6866 48.0401 60.767 48.216 52.6223V52.6223ZM34.6441 81.1131L35.3823 80.2474L46.0541 90.1731L45.7655 90.5116C45.6135 90.6898 45.4455 90.8487 45.2692 90.9952L34.6441 81.1131ZM37.2179 78.0949L38.0457 77.1242L49.785 85.798L47.8897 88.0206L37.2179 78.0949V78.0949ZM34.7018 87.3096C33.4678 86.3978 32.9365 84.9641 33.1797 83.6106L42.1695 91.972C41.3634 91.9157 40.5667 91.6427 39.8872 91.1406L34.702 87.3094L34.7018 87.3096Z" fill="black"/>
<path d="M55.4264 46.2271C55.814 45.6013 56.2615 44.9949 56.7566 44.4251C57.266 43.8389 57.1683 42.9794 56.5385 42.5052C55.9128 42.0345 54.9854 42.122 54.476 42.7082C53.8845 43.389 53.3492 44.1141 52.8851 44.8637C52.5176 45.4571 52.6827 46.2003 53.2424 46.6138C53.2987 46.6555 53.3591 46.6938 53.4234 46.7283C54.1251 47.1046 55.0219 46.8803 55.4264 46.2271Z" fill="black"/>
<path d="M48.3365 67.4636C48.4553 67.5514 48.5912 67.6234 48.7413 67.6751C49.5013 67.9359 50.3446 67.5739 50.6247 66.8666C52.4247 62.3222 53.3904 57.5629 53.4948 52.7209C53.5122 51.9206 53.6037 51.1221 53.7672 50.3475C53.9233 49.6076 53.4053 48.8902 52.6104 48.7449C51.8157 48.5997 51.0449 49.0818 50.8888 49.8217C50.6929 50.7511 50.583 51.708 50.5623 52.6662C50.4644 57.2036 49.5595 61.6635 47.8727 65.922C47.6479 66.4895 47.8537 67.1069 48.3365 67.4636Z" fill="black"/>
<path d="M77.1048 65.5912C76.7214 64.927 75.832 64.6779 75.1187 65.0349C74.0839 65.5527 72.9731 65.9551 71.8171 66.2309C71.0326 66.4181 70.5597 67.1621 70.7608 67.8924C70.8433 68.1923 71.0269 68.4432 71.2687 68.6218C71.6159 68.8784 72.0834 68.986 72.5459 68.8755C73.9311 68.5449 75.2639 68.0618 76.5072 67.4399C77.2207 67.083 77.4884 66.2553 77.1048 65.5912V65.5912Z" fill="black"/>
<path d="M77.2742 42.3201C83.6078 46.9998 84.6703 55.6033 79.6429 61.4987C79.3571 61.8339 79.0525 62.1594 78.7377 62.4662C78.1783 63.0116 78.1996 63.8755 78.7853 64.3963C78.8184 64.4257 78.8525 64.4534 78.8877 64.4794C79.4748 64.9132 80.331 64.8665 80.8588 64.3521C81.2351 63.9852 81.5991 63.5964 81.9403 63.1962C87.9732 56.1216 86.6982 45.7973 79.0979 40.1816C78.4635 39.7129 77.5409 39.8116 77.0373 40.4021C76.5338 40.9927 76.6398 41.8514 77.2742 42.3201V42.3201Z" fill="black"/>
<path d="M83.9532 34.4878C84.5876 34.9565 85.5102 34.8578 86.0137 34.2673L91.1199 28.2794C91.6234 27.6889 91.5174 26.8302 90.883 26.3614C90.2486 25.8927 89.326 25.9914 88.8225 26.582L83.7163 32.5698C83.2127 33.1603 83.3188 34.0191 83.9532 34.4878Z" fill="black"/>
<path d="M70.5306 28.014C70.4509 28.5145 70.6733 28.9914 71.0703 29.2847C71.2652 29.4287 71.5021 29.5285 71.7659 29.5649C72.5671 29.6755 73.3131 29.1608 73.432 28.415L74.6377 20.8559C74.7565 20.1099 74.2035 19.4157 73.4024 19.3051C72.6012 19.1944 71.8551 19.7092 71.7362 20.4549L70.5306 28.014Z" fill="black"/>
<path d="M82.3495 83.2942L79.3325 76.187C79.0348 75.4855 78.1827 75.1418 77.4295 75.4191C76.6762 75.6961 76.3068 76.4891 76.6045 77.1904L79.6216 84.2976C79.7196 84.5285 79.8776 84.7206 80.0726 84.8646C80.4696 85.158 81.0194 85.2513 81.5246 85.0655C82.2779 84.7885 82.6472 83.9954 82.3495 83.2942V83.2942Z" fill="black"/>
<path d="M53.6461 23.1023L56.6632 30.2095C56.7612 30.4404 56.9192 30.6325 57.1142 30.7765C57.5112 31.0699 58.0609 31.1632 58.5662 30.9774C59.3195 30.7004 59.6889 29.9074 59.3911 29.2061L56.374 22.0988C56.0766 21.3975 55.2245 21.0538 54.4711 21.331C53.7178 21.608 53.3485 22.4009 53.6461 23.1023V23.1023Z" fill="black"/>
<path d="M96.5921 72.5825L90.1593 67.8296C89.5249 67.3608 88.6024 67.4596 88.0988 68.0501C87.5952 68.6406 87.7013 69.4994 88.3357 69.9681L94.7684 74.721C95.4028 75.1898 96.3254 75.091 96.829 74.5005C97.3325 73.91 97.2266 73.0514 96.5921 72.5825Z" fill="black"/>
<path d="M47.897 38.3463C48.4006 37.7557 48.2945 36.897 47.6602 36.4283L41.2274 31.6753C40.593 31.2065 39.6704 31.3053 39.1669 31.8958C38.6633 32.4863 38.7694 33.3451 39.4038 33.8138L45.8365 38.5668C46.4711 39.0356 47.3935 38.9368 47.897 38.3463Z" fill="black"/>
<path d="M93.9271 57.9763C94.1219 58.1202 94.3589 58.22 94.6227 58.2564L102.743 59.3786C103.545 59.4893 104.291 58.9745 104.41 58.2288C104.528 57.483 103.975 56.7885 103.174 56.6779L95.0535 55.5557C94.2523 55.445 93.5063 55.9598 93.3874 56.7055C93.3076 57.2058 93.5303 57.6831 93.9271 57.9763Z" fill="black"/>
<path d="M41.373 48.1401L33.2522 47.0179C32.4511 46.9072 31.705 47.4219 31.5861 48.1677C31.5064 48.6679 31.7289 49.1451 32.1258 49.4384C32.3207 49.5824 32.5576 49.6822 32.8214 49.7186L40.9422 50.8408C41.7434 50.9515 42.4894 50.4367 42.6083 49.691C42.7275 48.9452 42.1739 48.2506 41.373 48.1401V48.1401Z" fill="black"/>
<path d="M91.87 44.4191C91.968 44.65 92.126 44.8421 92.321 44.9861C92.718 45.2795 93.2677 45.3729 93.773 45.187L101.408 42.3786C102.162 42.1016 102.531 41.3085 102.233 40.6073C101.936 39.9062 101.084 39.5622 100.33 39.8394L92.695 42.6478C91.9417 42.9248 91.5724 43.718 91.87 44.4191V44.4191Z" fill="black"/>
</g>
<defs>
<clipPath id="clip0_1_308">
<rect width="82" height="82" fill="white" transform="matrix(0.804277 0.594255 -0.648864 0.760904 55.9713 0.566162)"/>
</clipPath>
</defs>
</svg>
